<svg width="63" height="63" viewBox="0 0 63 63" fill="none" xmlns="http://www.w3.org/2000/svg">
<circle cx="31.5" cy="31.5" r="29" fill="#181818" stroke="#E7D886" stroke-width="5"/>
<path d="M23.6193 21.8182V40H21.4886L11.581 25.7244H11.4034V40H9.2017V21.8182H11.3324L21.2756 36.1293H21.4531V21.8182H23.6193ZM32.89 40.2486C31.6945 40.2486 30.6646 40.0296 29.8005 39.5916C28.9364 39.1536 28.2706 38.5529 27.803 37.7894C27.3354 37.0259 27.1017 36.1529 27.1017 35.1705C27.1017 34.4129 27.2615 33.7411 27.5811 33.1552C27.9066 32.5633 28.3534 32.0159 28.9216 31.5128C29.4957 31.0038 30.1556 30.4948 30.9014 29.9858L33.5292 28.0327C34.0441 27.6953 34.4555 27.3343 34.7632 26.9496C35.0769 26.5649 35.2338 26.0618 35.2338 25.4403C35.2338 24.9787 35.0296 24.5318 34.6212 24.0998C34.2187 23.6677 33.689 23.4517 33.032 23.4517C32.5704 23.4517 32.162 23.5701 31.8069 23.8068C31.4577 24.0376 31.1825 24.3336 30.9813 24.6946C30.786 25.0497 30.6883 25.4167 30.6883 25.7955C30.6883 26.2216 30.8037 26.6536 31.0345 27.0916C31.2713 27.5237 31.5702 27.9676 31.9312 28.4233C32.2981 28.8731 32.6769 29.3348 33.0676 29.8082L41.4127 40H38.8914L32.0022 31.6903C31.363 30.9209 30.783 30.2225 30.2622 29.5952C29.7413 28.9678 29.327 28.3493 29.0193 27.7397C28.7115 27.1301 28.5576 26.4702 28.5576 25.7599C28.5576 24.9432 28.7381 24.227 29.0992 23.6115C29.4661 22.9901 29.9781 22.5077 30.635 22.1644C31.2979 21.8152 32.0732 21.6406 32.961 21.6406C33.8725 21.6406 34.6567 21.8182 35.3137 22.1733C35.9706 22.5225 36.4767 22.9871 36.8318 23.5671C37.1869 24.1412 37.3644 24.7656 37.3644 25.4403C37.3644 26.3104 37.1484 27.065 36.7164 27.7042C36.2843 28.3434 35.6954 28.9382 34.9497 29.4886L31.3275 32.1875C30.5107 32.7912 29.9574 33.3771 29.6673 33.9453C29.3773 34.5135 29.2323 34.9219 29.2323 35.1705C29.2323 35.7386 29.3803 36.2683 29.6762 36.7596C29.9722 37.2508 30.3894 37.6474 30.928 37.9492C31.4666 38.2511 32.0969 38.402 32.819 38.402C33.5055 38.402 34.1743 38.257 34.8254 37.967C35.4764 37.671 36.0653 37.2449 36.5921 36.6886C37.1247 36.1322 37.545 35.4634 37.8527 34.6822C38.1664 33.9009 38.3232 33.022 38.3232 32.0455H40.3474C40.3474 33.2528 40.2083 34.2383 39.9301 35.0018C39.652 35.7653 39.3383 36.363 38.9891 36.7951C38.6399 37.2272 38.3588 37.5497 38.1457 37.7628C38.0747 37.8516 38.0096 37.9403 37.9504 38.0291C37.8912 38.1179 37.8261 38.2067 37.7551 38.2955C37.1691 38.9524 36.4293 39.4437 35.5356 39.7692C34.6419 40.0888 33.76 40.2486 32.89 40.2486ZM44.0162 40V21.8182H54.9892V23.7713H46.2179V29.9148H54.421V31.8679H46.2179V38.0469H55.1312V40H44.0162Z" fill="#E7D886"/>
</svg>
